<svg width="105" height="83" viewBox="0 0 105 83" fill="none" xmlns="http://www.w3.org/2000/svg">
<path d="M47.5736 0.0028096C49.0743 5.18222 52.8138 5.98471 57.8703 4.92647C58.3519 4.82568 59.8712 4.23194 60.121 3.86301C57.8011 4.5949 55.5022 5.21361 53.2279 4.01814C52.3218 3.5418 51.4431 2.62319 51.4028 1.54972L51.4989 1.45498C52.4884 1.79487 52.0006 2.40421 53.9358 2.58208C58.3807 2.99065 61.9798 -1.14263 66.4082 0.311339C67.125 0.54666 67.7759 1.02411 68.0656 1.72145C68.6167 3.01457 69.1021 4.44408 69.8955 5.62092C70.2237 6.10762 71.0936 6.12672 71.1511 6.84301C71.0864 7.00448 71.0203 7.16549 70.953 7.32586C71.0785 7.77374 71.8444 10.391 71.552 10.6252C69.814 12.0167 67.8348 11.2079 68.4754 14.4044C69.4492 18.574 73.4644 17.476 74.5503 21.9665C75.2947 25.0441 74.2188 27.4396 74.4116 30.1281C74.817 35.7785 72.9272 40.1275 72.3655 45.6011C72.1941 47.2713 72.3963 49.2659 72.7482 50.8984C72.9888 52.0549 73.8852 54.3732 73.7784 55.3256C72.9411 56.3286 68.7816 54.3976 67.6708 53.9639C66.2658 57.1792 64.9259 61.2062 60.9014 57.5869C58.8248 55.7194 56.7928 53.4854 54.9737 51.3612C54.8921 51.2659 55.0123 51.1048 55.0613 51.019C55.9849 50.4911 58.8038 51.2745 59.7949 51.6586C59.0419 50.9322 57.2177 48.9862 56.1503 49.119C53.4609 49.4538 50.9917 51.804 48.4883 52.7685C46.6041 53.471 44.5692 53.637 42.6099 54.092C37.1747 55.3541 32.366 57.5014 27.8343 60.7647C25.909 62.1511 24.0894 62.9638 23.014 65.1715L25.5363 65.0742C25.2086 65.5914 24.9149 66.1581 24.3777 66.4608C23.9265 66.4332 23.132 66.3895 22.7136 66.5418L22.6882 66.6529C23.1869 66.894 24.0364 66.8063 24.6033 66.7829C25.0518 66.8251 25.7276 66.6588 26.1717 66.5517C26.3351 66.3827 26.5788 66.0534 26.7256 65.8504C28.2519 63.7408 31.4834 61.3262 34.0753 63.3648C35.8083 67.1587 31.1978 70.4528 27.766 69.5576C27.7627 70.2042 27.6457 72.0092 28.1646 72.4118C30.5581 74.2687 34.1971 71.4042 35.3663 69.2854C36.439 67.3414 37.025 65.3534 37.1434 63.1969C38.5749 63.2345 38.8705 63.2108 40.2671 62.7828C39.9398 63.7334 39.6202 64.4497 39.1743 65.3461C39.6382 64.9637 40.1452 64.345 40.5779 63.8978C42.0708 62.3544 45.1689 61.8513 45.0707 64.8278C46.6585 63.2996 48.6043 61.7599 50.7945 63.3195C52.8219 66.7676 47.0676 71.682 49.1479 72.8925C49.294 72.9255 49.4109 72.9234 49.5505 72.8712C51.8071 72.0293 52.8239 69.8483 53.6005 67.7424C53.8976 66.9369 54.2217 66.2257 54.4562 65.3992C54.648 64.7226 54.5428 63.949 54.8528 63.3571C55.1514 63.1343 55.505 63.2291 55.94 63.217C56.7822 63.1934 57.4069 63.0473 58.2158 62.8363C57.7854 64.3148 54.5882 71.744 54.9115 72.6161C54.9734 72.6649 55.0597 72.72 55.1361 72.7364C57.2958 73.0977 59.3141 69.4439 60.0312 67.8196C61.2514 65.0558 61.7253 61.5827 65.8383 62.5952C66.2906 62.7065 66.4585 62.7634 66.6951 63.1785C66.7122 63.5392 66.3261 64.2616 66.1566 64.6998C65.6786 64.3087 65.3184 63.8907 64.6551 63.9968C63.2481 64.2218 63.9786 66.0223 64.402 66.8002C65.4195 68.6693 66.6089 70.7972 65.467 72.9147C64.1857 75.2912 60.2345 75.7736 58.7772 73.3292C58.5996 73.0299 58.4758 72.5137 58.3832 72.1649C57.2554 73.5933 54.748 75.7379 52.7878 74.6847C52.0033 74.2632 51.9958 73.1029 51.8245 72.9184C50.6591 73.8178 48.6517 75.6046 47.0554 74.7568C43.1298 72.6716 48.8788 67.4889 48.3345 64.5352C48.294 64.3157 48.1378 64.2569 47.9684 64.1826C45.3503 64.1926 43.6732 70.0699 42.9645 72.0418C41.8994 75.0056 42.076 74.7319 39.0064 74.6409C39.7191 73.2204 42.4464 66.5735 42.5651 65.3408C42.6041 64.9345 42.5925 64.5574 42.3268 64.2293C42.193 64.1683 42.0596 64.0807 41.9 64.1461C39.1901 65.2574 38.2065 69.8768 37.1283 72.3625C36.889 72.978 36.6617 73.7191 36.3266 74.2791C35.9728 74.8703 33.9533 74.8056 33.4581 74.4516C33.3171 73.9465 33.8573 73.2702 34.1402 72.7237C31.9931 74.2585 29.8311 75.7606 26.9816 74.5938C24.3207 73.5043 24.6643 69.9126 25.6229 67.7126C24.4617 67.8984 23.8077 67.9656 22.635 67.942C23.1546 71.3653 21.7934 80.2072 17.98 81.9169C17.2406 82.2483 16.3981 82.0114 15.661 81.7624C14.627 80.5742 14.7789 79.722 15.2674 78.2915C15.6055 77.301 16.0499 76.3914 16.4957 75.448C16.0626 74.2099 14.7164 72.4143 13.7739 71.5111L13.8628 71.4909C16.8828 70.7885 17.8614 68.924 19.4062 66.4177L16.2832 66.3791C17.2662 64.8506 18.5417 65.1896 20.1593 65.1371C21.8108 62.2303 23.205 59.0645 24.9216 56.1952C25.2306 55.6786 26.4752 55.7286 26.7677 55.2891C27.7474 53.8164 27.8518 52.2251 29.9911 53.5825C30.4655 53.8833 30.6692 54.2297 30.9617 54.7254C32.0169 53.9693 33.2472 53.2152 34.3427 52.511C36.9211 50.8536 39.909 48.6872 43.0657 48.5473C45.8788 48.4226 47.1545 47.3213 49.1707 45.5277C43.9507 44.008 45.1274 41.7198 44.6237 37.3628C44.4501 35.8598 42.7358 35.075 41.6046 34.4204C41.0315 34.0888 39.9963 33.3695 40.5966 32.6137C41.6624 31.8957 45.4505 32.4564 46.7673 32.5028C48.3903 32.5602 48.8119 32.9395 48.7984 34.4606C54.3622 34.8036 60.7325 33.6679 65.0614 29.9205C65.1637 29.832 65.4072 29.257 65.4696 29.1082C65.2419 28.4644 64.9815 27.3069 64.7899 26.7646C64.245 25.2224 62.0694 20.1303 60.616 19.4778C59.547 18.9977 57.9076 18.6022 56.5272 17.8717C56.2226 17.9235 55.0074 18.2703 54.8824 18.4983C55.4806 19.2684 58.8061 19.9932 58.9549 20.684C58.569 20.973 57.5884 20.8792 57.0963 20.9217C53.1448 21.2392 49.3366 20.1027 45.4191 20.2395C44.1003 20.2856 40.8081 22.1463 40.0816 21.9476L39.9998 21.7978C40.1103 21.258 41.0122 20.7293 41.2478 20.1087C41.0197 19.0697 37.9372 20.3329 36.3652 18.8984L36.3696 18.7709C36.6294 18.7114 36.7208 18.6989 36.9606 18.5623C36.9825 18.1427 36.2391 17.665 35.7901 17.1521C36.4581 17.245 37.7634 17.8086 38.2495 17.7606C38.2637 17.5616 38.2573 17.4012 38.2514 17.2045C38.2936 17.1691 38.3437 17.1271 38.4018 17.0785C39.8487 17.2634 41.0511 17.6466 42.5271 17.8095C45.7363 18.1639 48.9662 17.5206 52.185 17.5093C52.332 17.5088 53.7531 16.8991 54.0233 16.7917C53.1068 16.4491 52.1279 15.9865 51.1862 15.6824C49.2804 15.0668 47.8332 14.6206 46.007 13.735C43.8749 12.7785 42.0185 10.7283 39.8016 10.0233C38.7662 9.69413 34.3357 10.8841 33.439 10.1281C33.5915 9.38973 34.8838 9.3957 35.3543 8.87172C35.3798 7.81578 30.9681 7.48237 31.3152 6.15224C31.8186 5.93863 31.7208 6.24807 32.3341 6.20511C32.3533 5.98719 31.7912 4.934 31.6437 4.60729C32.7242 5.08381 33.6785 5.72107 34.7984 6.16518C36.2889 6.75617 37.7624 7.18835 39.2832 7.6735C40.6192 8.09971 42.0017 8.61368 43.3198 9.09947C44.4611 9.52017 46.124 9.93445 47.1709 10.3704C51.1861 12.0425 52.8562 13.6661 57.405 14.1563C58.2321 14.2649 59.4157 14.1434 60.0238 14.2338C61.7654 14.4928 61.6365 14.7343 63.4549 14.595C64.0693 13.7683 64.1076 13.4918 64.2172 12.5105C61.5768 13.7489 61.7087 13.5624 58.9824 13.7824C57.9164 13.4416 56.8244 13.2587 55.7526 12.9481C54.0248 12.4476 52.2906 11.6858 50.6906 10.8649C50.0846 10.554 48.1861 9.39909 47.8267 8.88824L47.8414 8.74807C48.2665 8.76533 49.0286 9.09772 49.4282 9.23083C49.9326 9.39882 52.5196 10.0452 52.9334 9.98687L52.9109 9.88057C52.2158 9.44609 51.4458 9.286 50.7369 8.92928C47.7366 7.41977 46.2445 3.07005 47.5736 0.0028096ZM61.0686 73.0498C64.7158 72.8809 62.1478 67.3882 61.5141 67.1224C60.8661 68.7106 57.7742 72.5972 61.0686 73.0498ZM17.8764 80.4935C19.5652 79.7529 21.1489 74.5759 21.3678 72.7652C21.4332 72.2252 21.9475 69.6241 21.8363 69.1799L21.745 69.0729C21.4606 69.6516 21.2959 70.3339 21.0724 70.9446C20.2713 73.1326 19.3172 75.2646 18.4516 77.4273C18.1601 78.1559 17.3967 79.792 17.8764 80.4935ZM62.4366 33.5825C61.1032 34.0824 59.8765 34.4222 58.5082 34.8135L58.4913 34.9026L58.8252 35.0183C59.4856 34.9676 62.3485 34.0892 62.7012 33.6065C62.6329 33.5986 62.4985 33.5783 62.4366 33.5825ZM68.7805 41.3512C68.1302 42.0147 66.1236 46.0949 65.8239 47.0501L65.9294 47.1753C67.1272 45.4921 68.0486 43.4842 68.8602 41.5898C68.8374 41.4629 68.8546 41.4279 68.7805 41.3512ZM69.3041 38.5022C68.6006 39.2245 68.1109 40.1466 67.4705 40.9259C67.0116 41.4845 64.0197 44.3933 64.0224 44.8107C64.0226 44.8281 64.0278 44.8451 64.0304 44.8622C66.0836 43.3835 68.1256 40.9724 69.3114 38.741L69.3041 38.5022ZM29.0255 68.5188C30.356 68.1081 31.1622 67.4542 31.8667 66.2101C32.2737 65.4911 32.8357 63.884 31.4256 63.9274C30.4023 64.455 29.8137 65.1632 29.2039 66.131C28.9088 66.5993 27.9425 67.9938 28.2184 68.5312C28.5082 68.6012 28.7303 68.5545 29.0255 68.5188ZM68.4134 33.9384C66.3827 35.3111 64.7985 36.6972 62.3891 37.537C62.0398 37.6588 59.9743 38.3878 59.8921 38.5266L59.9747 38.581C62.8139 38.1038 65.1446 37.2391 67.2808 35.2602C67.5508 35.0101 68.4198 34.3327 68.4634 33.9906L68.4134 33.9384ZM66.8454 36.8532C63.9812 39.1763 61.3762 40.3093 58.002 41.7846C57.5211 41.9949 56.1423 42.1563 55.9884 42.5465L56.1247 42.632C57.8796 42.2351 59.9131 41.977 61.5592 41.2448C62.9993 40.6043 66.1831 38.2866 66.982 36.9577C66.9074 36.8557 66.9574 36.883 66.8454 36.8532Z" fill="#F7F5F6"/>
<path d="M11.6155 50.9585C14.9826 50.8803 19.5286 51.2279 21.4013 54.6001C23.4152 58.2267 21.0786 63.0767 17.6178 64.8889C15.3253 66.0893 12.4025 66.4784 9.88035 65.7156C8.21525 69.6151 6.97525 71.6002 4.43982 74.9858C3.78713 72.7999 2.49178 71.2465 0.956573 69.6647C1.08626 69.6275 1.21536 69.5883 1.34379 69.5469C4.94994 68.3841 6.75687 64.6739 8.42225 61.4273C9.68381 58.8193 11.6675 55.0541 13.9425 53.2707C14.3025 52.9884 14.9881 52.6233 15.4072 52.3975C12.6354 52.0651 9.24328 52.5439 6.79882 53.9297C5.3521 54.7078 4.09292 55.7382 3.55095 57.3555C3.22983 58.3138 3.51569 59.7934 4.67749 60.0924C5.7225 60.3613 6.30082 58.6178 6.90742 58.2344L7.05906 58.3429C7.24165 58.6775 7.29985 58.9611 7.32078 59.3442C7.36695 60.1597 7.08128 60.9593 6.52885 61.5611C5.82274 62.3252 4.8374 62.771 3.79727 62.7968C-2.63235 62.9984 -1.44747 51.3355 11.6155 50.9585ZM10.2362 64.6916C11.2367 64.5523 11.7065 64.5965 12.7594 64.3704C14.1141 63.9855 14.4133 63.7958 15.5872 63.077C18.7315 61.1517 20.8689 55.1794 16.7681 53.005C16.644 52.9406 16.5149 52.8867 16.3819 52.8437C13.2561 56.2002 12.3357 60.7815 10.2362 64.6916Z" fill="#F7F5F6"/>
<path d="M84.9607 60.4907C85.2277 60.4847 85.1374 60.4487 85.3272 60.5945C85.4138 61.1909 84.6456 62.7472 84.3518 63.3068C85.6066 63.1535 88.3449 63.1976 89.7393 63.1806C88.6607 64.5739 84.9068 71.3113 86.0628 72.7237C87.0258 73.38 89.0618 71.3785 89.508 70.5842C89.7834 70.0012 89.8568 69.3273 90.0551 68.7184C90.9776 65.8879 93.4718 62.6988 96.7104 62.6499C97.6843 62.6351 98.2452 62.8238 98.9373 63.463C100.282 67.1834 95.8695 70.4841 92.4767 69.4857C92.3298 70.9565 92.1949 71.5021 93.1027 72.6724C95.4592 73.7175 97.8294 72.0178 99.3587 70.3385C99.7562 69.9029 100.405 68.3832 101.029 68.7325C101.286 69.1854 101.039 69.9222 100.751 70.3213C98.9474 72.8333 95.7557 75.6201 92.4106 74.8106C90.8757 74.4391 90.3268 73.6194 89.5878 72.3518C88.6634 72.6746 87.3223 74.999 85.4387 74.9108C80.0866 74.6601 84.4078 66.3295 86.2238 64.5694C86.2231 64.5634 86.2223 64.5573 86.2215 64.5513C86.1961 64.5123 86.1708 64.4733 86.1454 64.4344C85.3368 64.4001 84.4523 64.45 83.6933 64.2661C82.926 66.7797 80.8479 70.4534 79.1897 72.4973C77.6691 74.3715 73.1818 76.8647 72.972 72.5771C72.0147 73.8454 70.3025 75.134 68.6377 74.9817C67.4356 74.8717 66.9039 73.6153 67.0819 72.5464C67.482 70.143 68.8269 67.8075 69.5667 65.4886C69.7598 64.8832 69.8478 63.8803 69.9305 63.2383C71.2812 63.1773 71.972 63.1361 73.2907 62.8415C72.465 65.1856 71.6435 67.5123 70.7183 69.821C70.4764 70.4251 69.8606 71.8702 69.9684 72.4672C70.6758 73.6004 72.1074 72.1066 72.6352 71.4849C74.7294 69.0175 75.2676 65.674 76.6565 62.852C77.5652 62.8156 78.565 62.8253 79.481 62.8153C78.5651 65.2048 77.5799 67.5617 76.638 69.947C76.4666 70.497 75.6565 72.0413 75.994 72.5727C76.497 73.3646 77.832 72.3057 78.2123 71.9035C80.1137 69.8926 81.559 66.8015 81.9904 64.0874C82.1186 63.2814 82.0122 61.8139 82.0351 60.9928L84.9607 60.4907ZM93.6278 68.5528C94.1584 68.4032 94.5008 68.3101 94.9726 67.9944C96.0044 67.304 98.0212 64.9401 96.524 63.941L96.3285 63.9244C94.7532 64.5806 93.9363 66.0116 93.1863 67.5005C93.0522 67.7671 92.9797 68.1187 93.0036 68.4218L93.1183 68.5792C93.2817 68.5763 93.4699 68.5792 93.6278 68.5528Z" fill="#E2E1E3"/>
<path d="M69.6609 16.2392C69.4113 15.7944 68.9705 14.9748 68.9453 14.4742C69.0732 14.1546 69.1994 14.0507 69.5846 14.0733C84.1799 14.9282 97.7522 25.1264 102.531 38.996C104.444 44.491 105.078 50.3499 104.387 56.1271C104.273 57.0088 104.15 57.8024 103.97 58.6732C103.823 59.3784 103.501 60.4869 103.439 61.1623C103.317 61.3143 103.312 61.3355 103.133 61.3868C103.033 61.1356 103.047 60.8887 103.037 60.6151V60.5447C103.042 59.996 103.187 59.4005 103.265 58.8512C104.896 47.2528 101.386 35.8789 93.245 27.3529C87.0129 20.8812 78.6193 16.9259 69.6609 16.2392Z" fill="#F7F5F6"/>
<path d="M46.0191 20.5473C46.7466 20.4913 47.6608 20.5342 48.3865 20.5753C47.2194 21.1228 45.4579 22.306 44.3905 23.0789C39.0751 26.9281 35.3779 31.5324 32.4949 37.3982C32.3382 37.8266 32.243 38.0016 32.0158 38.401L31.9419 38.4127C31.9832 38.0038 32.0793 37.6025 32.2276 37.2192C34.1588 32.0982 38.1849 26.9116 42.2477 23.344C43.1297 22.5694 44.9381 21.0427 46.0191 20.5473Z" fill="#F7F4F4"/>
<path d="M64.5236 75.5645C65.5264 76.0423 65.0465 77.6283 65.6863 78.5155C66.0858 78.0228 66.2443 76.0074 66.9269 75.6962C67.4391 75.9524 67.6628 78.1861 67.9911 79.0233L68.0087 79.0673C68.1102 78.39 68.4902 75.8614 69.1378 75.6383L69.2902 75.7896C69.397 76.1587 69.2588 76.3573 69.1339 76.7708C69.0169 77.4411 68.6307 79.8288 68.0475 80.1092C67.4761 79.9064 66.9743 77.585 66.7744 76.953C66.6684 77.499 66.5509 78.0428 66.4218 78.5838C66.3145 79.0239 66.0547 80.1001 65.4675 79.9183C65.025 79.4368 64.2556 76.2086 64.5236 75.5645Z" fill="#E2E1E3"/>
<path d="M55.457 76.7317C55.952 76.7732 56.7687 76.5878 56.9846 76.9045C57.018 77.4348 56.6422 78.0004 56.3976 78.4519C56.1016 78.9982 55.3125 78.8058 54.9667 79.0116L54.9901 79.2145C55.689 79.7542 57.0454 79.0584 57.1738 80.2017C56.577 81.168 54.5642 81.8107 54.1861 80.3651C54.0892 79.9944 54.5375 79.1436 54.5115 78.8024C54.4248 77.6637 53.9908 76.9859 55.457 76.7317ZM55.6753 78.659C56.0495 78.0905 56.1675 77.5555 55.4301 77.2127C54.67 77.7727 54.689 78.4687 55.6753 78.659Z" fill="#E2E1E3" fill-opacity="0.984314"/>
<path d="M57.321 57.5511C59.1449 57.2929 59.9313 58.8862 59.0628 60.4371C58.8139 60.6105 58.4191 60.8257 58.1469 60.9848C57.3181 61.068 56.8958 60.7834 56.3158 60.2295L55.9878 59.2C56.3027 58.2691 56.3615 57.9385 57.321 57.5511Z" fill="#F7F5F6"/>
<path d="M43.095 79.0494C43.0949 78.2004 42.9833 77.2394 43.9158 76.8662C44.4585 76.6489 44.5734 76.8761 45.065 76.8106C45.1378 76.4079 45.2174 76.0065 45.3038 75.6066C45.5063 75.3769 45.4086 75.4233 45.6652 75.3896L45.8177 75.5205C45.9389 75.853 45.9439 79.4254 45.9584 80.1232L45.105 79.6719C44.57 80.0257 44.2717 80.1198 43.6441 79.8902C43.458 79.6911 43.2429 79.2978 43.095 79.0494ZM44.7609 79.4475C45.3653 78.8746 45.3202 77.4217 44.2971 77.4737C43.4603 77.8303 43.7486 78.7824 44.0044 79.4251C44.2518 79.4395 44.5154 79.4635 44.7609 79.4475Z" fill="#F7F5F6"/>
<path d="M44.0043 79.4248C44.2517 79.4391 44.5154 79.4632 44.7608 79.4472C44.9413 79.5188 44.9963 79.5218 45.105 79.6716C44.57 80.0253 44.2717 80.1195 43.644 79.8898C43.7806 79.6579 43.8141 79.6154 44.0043 79.4248Z" fill="#E2E1E3"/>
<path d="M88.8139 75.291C88.8864 75.3596 89.0681 75.5075 89.0718 75.5752C89.1168 76.2497 89.2719 79.5858 89.036 79.9728C88.6156 80.0297 88.4641 79.731 88.3879 79.7605C87.8941 79.9528 87.7894 80.031 87.2258 80.0017C85.8453 79.1756 85.889 76.9229 87.6563 76.8407C87.8785 76.8304 88.1171 76.836 88.3402 76.8385C88.5963 76.5561 88.2989 75.9302 88.8139 75.291ZM87.9932 79.4859C88.6229 78.9581 88.566 78.1902 88.1869 77.5245C87.9574 77.3235 87.7757 77.3495 87.4736 77.3441C86.9596 77.8568 86.7751 78.6479 87.2579 79.2773C87.4213 79.4906 87.7454 79.4667 87.9932 79.4859Z" fill="#E2E1E3"/>
<path d="M79.0923 75.6621C79.8786 75.862 80.6801 75.6374 81.4232 76.0248C82.1527 76.4051 82.2633 77.0009 81.8224 77.6661C81.3858 78.325 81.0754 78.3873 80.3503 78.5456C80.144 78.5527 79.9379 78.5635 79.732 78.5781C79.5477 78.8314 79.6236 79.4652 79.4027 79.9734L79.2686 80.0196L79.111 79.827C79.0607 78.9917 78.8686 76.3377 79.0923 75.6621ZM79.7178 77.9145C80.0638 77.8746 80.6496 77.8315 80.9552 77.7117C81.1775 77.4007 81.1834 77.3448 81.2368 76.9634C81.0159 76.2654 80.3133 76.3241 79.6795 76.3375C79.6213 76.9614 79.6368 77.2894 79.7178 77.9145Z" fill="#E2E1E3"/>
<path d="M40.6341 76.8151C41.0191 76.7627 42.0173 76.763 42.1416 77.2214C42.2627 77.6681 42.5422 79.7033 42.3698 80.0194C41.9437 80.0429 41.7561 79.6259 41.5273 79.7218C40.9814 79.9507 40.9145 80.0501 40.2594 80.0176C38.9058 78.6509 40.81 78.3672 41.5323 77.7537C41.5725 77.7196 41.5311 77.5623 41.522 77.499C41.0999 77.343 40.4203 77.6991 39.9576 77.5285L39.9443 77.3777C40.1341 77.0206 40.26 76.9875 40.6341 76.8151Z" fill="#F7F5F6"/>
<path d="M91.3142 76.7246C92.0422 76.8662 92.727 77.5105 92.5617 78.277C92.0816 78.8606 90.8047 78.3866 90.5238 78.863C91.037 79.7008 91.6199 79.4877 92.3524 79.2307C92.4617 79.3674 92.4185 79.2888 92.4433 79.4937C92.2882 79.7166 92.0578 79.876 91.7943 79.9425C90.5908 80.2519 90.0437 79.4016 89.7803 78.4152C90.0199 77.2695 90.1475 76.9776 91.3142 76.7246ZM91.5868 78.0505L91.8439 78.0931L91.9715 77.9947C91.9448 77.6067 91.6153 77.3553 91.2766 77.2232C90.9911 77.4103 90.802 77.5016 90.6413 77.8023C90.7331 78.2348 91.2187 78.0884 91.5868 78.0505Z" fill="#E2E1E3"/>
<path d="M58.0984 75.3662C58.744 75.7824 58.4661 76.4773 58.3672 77.1454C58.7133 76.9895 59.1532 76.7733 59.5339 76.7623C60.8467 76.7249 60.6755 79.5298 60.0526 80.0344C59.7895 79.7787 59.7926 78.4069 59.7755 77.986C59.7259 77.7003 59.7268 77.6229 59.5131 77.4112C58.045 76.9677 58.6721 79.415 58.3751 79.8379C58.1031 79.9402 58.217 79.9332 57.9428 79.8761C57.627 79.2601 57.7758 76.6487 57.8103 75.8926C57.8192 75.6979 57.9641 75.5074 58.0984 75.3662Z" fill="#E2E1E3"/>
<path d="M37.7539 76.7136C38.2616 76.6977 38.6217 76.9594 39.0399 77.2153L39.3586 78.5144C38.8432 78.5726 37.6204 78.4657 37.3605 78.6721C37.3037 79.1196 37.685 79.516 38.135 79.5429C38.4562 79.5619 38.566 79.386 38.7849 79.185C39.0086 79.2868 38.9321 79.2244 39.0768 79.4222L39.0197 79.5854C38.3696 80.1952 37.5525 79.9512 36.8715 79.5533C36.8326 79.4758 36.795 79.3977 36.7587 79.319C36.2122 78.1247 36.533 77.2213 37.7539 76.7136Z" fill="#E2E1E3" fill-opacity="0.988235"/>
<path d="M64.217 12.5107C64.1074 13.492 64.0691 13.7685 63.4547 14.5952C61.6363 14.7345 61.7652 14.493 60.0236 14.234C59.4155 14.1436 58.2319 14.2651 57.4048 14.1565C58.225 13.9499 57.8052 13.9 58.9822 13.7826C61.7085 13.5626 61.5766 13.7491 64.217 12.5107Z" fill="#92929D" fill-opacity="0.0117647"/>
<path d="M63.5431 13.1839C63.7164 13.1774 63.6323 13.1624 63.7987 13.2511C63.7833 13.5341 63.4724 13.9601 63.3084 14.2207C62.4486 14.3988 62.1779 14.3878 61.3432 14.2596C61.1602 14.2589 61.2522 14.2777 61.0732 14.1544C61.1907 14.0192 63.1893 13.3554 63.5431 13.1839Z" fill="#F7F5F6"/>
<path d="M74.032 75.3486C74.7995 75.6543 74.4975 76.4192 74.3848 77.1074C75.0448 76.87 75.5362 76.6153 76.1876 76.983C76.6036 77.4795 76.8999 79.5326 76.4069 79.9479C76.1211 79.9601 76.2224 79.9961 76.0194 79.828C76.0111 79.2488 75.9085 78.596 75.8235 78.0184C75.7846 77.7716 75.7719 77.7432 75.636 77.5332C73.8988 76.561 74.7938 79.3776 74.4603 79.9192C74.2284 80.001 74.328 79.9952 74.0599 79.8883C73.7551 79.3262 73.8218 76.1246 74.032 75.3486Z" fill="#E2E1E3"/>
<path d="M50.9071 77.598C50.9034 76.9345 50.8569 76.2726 51.1407 75.6608L51.3497 75.6387C51.7485 76.29 51.9654 79.5496 51.361 79.9429L51.1345 79.8762C50.9762 79.4366 50.8228 78.5674 50.8785 78.1033C50.4995 78.1017 49.1566 78.0762 48.8612 78.1263L48.7192 78.1422C48.5107 77.8421 48.6048 76.2019 48.6041 75.6938C49.3867 76.1033 49.0195 76.8843 49.0579 77.703C49.7516 77.683 50.2162 77.7237 50.9071 77.598Z" fill="#E2E1E3" fill-opacity="0.980392"/>
<path d="M28.7831 79.1527C28.9516 78.449 29.1603 77.2496 29.7499 76.8255L29.8952 76.858C30.1008 77.384 29.5395 78.6125 29.3238 79.1774C29.084 79.9354 28.607 81.6605 27.5238 81.1089C27.5461 80.6893 28.3697 80.2281 28.3275 79.7971C28.2466 78.9713 27.1325 77.4283 27.4219 76.6787C28.1994 76.9106 28.3704 78.3613 28.7831 79.1527Z" fill="#F7F5F6"/>
<path d="M71.9105 75.9014C72.12 75.9196 72.1098 75.9156 72.2927 76.0181C72.586 76.7424 72.9394 76.6188 73.2105 77.0833C73.0701 77.4059 73.1529 77.3035 72.7758 77.4659C72.3706 77.8981 72.4916 78.6463 72.5086 79.2479C72.7734 79.4088 72.9431 79.5597 73.1788 79.7582C73.1222 79.9077 73.1071 79.9036 72.9828 79.9976C71.5164 80.0134 71.923 79.0723 71.8213 78.0396C71.7757 77.5765 71.6859 77.5483 71.3311 77.2613C71.3611 76.7295 71.8681 76.7653 71.9105 75.9014Z" fill="#E2E1E3"/>
<path d="M82.6248 76.7344C82.6395 76.738 82.6543 76.7417 82.6691 76.7454C83.3807 77.1234 83.4987 76.706 84.3262 77.039L84.3142 77.1913C84.0746 77.422 83.7229 77.4899 83.398 77.5838C83.3773 77.951 83.3754 78.338 83.3674 78.7072C83.3815 79.1591 83.4833 79.8664 83.0433 80.0851C82.523 79.4356 82.5547 77.5518 82.6248 76.7344Z" fill="#E2E1E3"/>
<path d="M34.8609 78.2484C34.6926 77.7634 35.0115 76.0919 35.5674 75.8643C35.7994 76.2633 35.7464 79.3604 35.5296 79.8831L35.4119 79.9263C35.1063 79.5866 35.0684 79.1788 34.98 78.7265C34.9649 78.566 34.908 78.4042 34.8609 78.2484Z" fill="#E2E1E3" fill-opacity="0.984314"/>
<path d="M26.1175 75.4854C26.1757 75.5138 26.3095 75.6196 26.3689 75.6637C26.5335 76.1345 26.4705 78.2968 26.5852 78.9351C26.6648 79.3792 26.7954 79.7269 26.6695 80.1052C26.5814 80.0743 26.419 80.0105 26.3564 79.947C25.7817 79.3651 25.7691 75.9662 26.1175 75.4854Z" fill="#E2E1E3" fill-opacity="0.968627"/>
<path d="M70.4617 76.6602L70.6368 76.8045C70.8346 77.232 70.8021 79.1031 70.7495 79.6524C70.7215 79.9446 70.6006 79.9742 70.3918 80.1296C69.8228 79.7202 69.9778 77.9264 70.0336 77.265C70.0628 76.9175 70.2162 76.8525 70.4617 76.6602Z" fill="#F7F5F6" fill-opacity="0.988235"/>
<path d="M22.6486 78.9082C22.0033 78.4814 22.032 76.6137 22.3934 76.0702C22.7646 75.8801 22.6937 75.8481 23.0576 75.8722C22.95 76.1875 22.947 76.0507 23.0939 76.3877C23.1419 76.8177 23.1516 76.9047 23.0608 77.3234C22.9063 77.6281 22.6796 78.5693 22.6486 78.9082Z" fill="#E2E1E3" fill-opacity="0.027451"/>
<path d="M103.439 61.1624C103.138 62.2763 102.433 64.961 101.721 65.7362C101.713 65.7018 102.904 61.2219 103.037 60.6152C103.047 60.8888 103.033 61.1357 103.133 61.3869C103.312 61.3357 103.317 61.3145 103.439 61.1624Z" fill="#E2E1E3" fill-opacity="0.988235"/>
<path d="M85.1683 76.6436L85.3364 76.7385C85.5397 77.1759 85.5903 79.6825 85.2721 80.1375C84.6003 79.6489 84.8144 77.3745 85.1683 76.6436Z" fill="#E2E1E3"/>
<path d="M32.4366 76.9575C32.437 76.6064 32.4022 76.0435 32.6417 75.7826L32.8371 75.707C33.3254 76.1008 33.0329 77.0771 33.234 77.7472C33.0265 77.9285 32.9402 78.4166 32.7009 78.5569C32.8164 78.1464 32.6583 77.3212 32.4366 76.9575Z" fill="#F7F5F6" fill-opacity="0.980392"/>
<path d="M53.0087 76.6797C53.5179 77.0157 53.4543 79.4886 53.04 80.0465C52.7089 79.6991 52.6775 77.2299 53.0087 76.6797Z" fill="#F7F5F6" fill-opacity="0.952941"/>
<path d="M22.6484 78.908C22.6795 78.5691 22.9062 77.6279 23.0607 77.3232C23.4663 77.7529 24.1848 77.7456 24.1999 78.0218C23.713 78.1738 23.5608 78.0534 23.2281 78.305C23.2166 78.6856 23.235 79.432 23.0663 79.738L22.9034 79.795C22.7063 79.603 22.6919 79.2015 22.6484 78.908Z" fill="#E2E1E3" fill-opacity="0.556863"/>
<path d="M48.8611 78.1268C48.9857 78.7304 49.043 79.0389 48.8856 79.6334L48.79 79.6828C48.361 79.0873 48.1418 76.2219 48.604 75.6943C48.6047 76.2024 48.5106 77.8426 48.7191 78.1427L48.8611 78.1268Z" fill="#F7F5F6" fill-opacity="0.854902"/>
<path d="M32.437 76.958C32.6587 77.3217 32.8168 78.147 32.7013 78.5574C32.9406 78.4171 33.0269 77.929 33.2345 77.7477C33.2716 77.8542 32.8405 79.6133 32.7507 79.8129C32.429 79.4909 32.4501 77.4667 32.437 76.958Z" fill="#F7F5F6" fill-opacity="0.866667"/>
<path d="M61.5229 79.0342C62.4475 79.3552 62.0787 80.2937 61.6294 80.8418C61.4493 80.8034 61.5324 80.8419 61.3872 80.6955C61.5121 79.9861 61.2709 79.626 61.5229 79.0342Z" fill="#E2E1E3" fill-opacity="0.972549"/>
<path d="M23.0572 75.8721C23.9043 75.9032 24.941 75.9248 25.7644 76.1144C24.9151 76.2675 23.7326 76.241 23.0935 76.3875C22.9466 76.0505 22.9496 76.1873 23.0572 75.8721Z" fill="#E2E1E3" fill-opacity="0.854902"/>
<path d="M34.9796 78.726C34.2832 78.581 34.1045 78.8885 33.4395 78.2991L33.5256 78.1663C33.8884 78.0155 34.4515 78.1743 34.8605 78.2479C34.9076 78.4037 34.9645 78.5655 34.9796 78.726Z" fill="black" fill-opacity="0.807843"/>
<path d="M24.6031 66.7824C24.0362 66.8058 23.1866 66.8936 22.688 66.6524L22.7133 66.5413C23.1317 66.3891 23.9262 66.4327 24.3775 66.4603L24.6031 66.7824Z" fill="black" fill-opacity="0.341176"/>
</svg>
