<svg width="158" height="49" viewBox="0 0 158 49" fill="none" xmlns="http://www.w3.org/2000/svg">
<path d="M7.84359 14.2186C9.39781 13.6587 9.3612 13.2645 10.2648 11.8998C10.4959 11.5506 10.5639 11.4002 10.9647 11.3099C11.0729 11.3609 11.2016 11.4454 11.2507 11.5568C12.362 14.0788 11.3588 16.738 9.11138 18.0832C7.67649 18.9536 5.94917 19.2025 4.32694 18.7725C2.88431 18.3825 1.6543 17.4383 0.904743 16.1455C-1.34576 12.3076 0.941358 7.52555 4.05029 4.96566C9.63426 0.367666 19.0158 -1.09723 26.0046 0.822418C37.5863 4.00375 36.0458 17.1078 26.7847 22.3231C27.9934 22.3767 29.3913 22.2418 30.6339 22.2555C31.2127 21.4355 31.9908 19.8831 32.4947 18.9439C33.6421 16.8407 34.7479 14.7151 35.8115 12.5683C36.5165 11.1453 37.2332 9.45895 38.1807 8.19988C39.0492 7.046 44.514 6.62999 44.983 8.00345L44.9537 8.24966C44.2949 8.55429 42.7935 9.23956 42.3858 9.77558C39.875 13.0767 37.5826 18.4708 35.9217 22.1719C36.77 22.2005 38.7445 22.0344 39.2239 22.4125C39.4667 23.1843 38.6789 23.8521 38.3479 24.4262C37.6658 24.4149 35.6929 24.3444 35.1072 24.5723C35.7483 24.7157 37.7047 24.6633 38.3453 24.519C39.069 24.5391 39.7859 24.5303 40.4974 24.3728C41.1933 23.587 41.7229 22.6968 42.4006 21.8846C44.1015 19.8463 46.5023 18.3107 49.187 18.1076C51.5694 17.8905 53.7014 18.987 53.8028 21.5893C53.8793 23.5527 53.2317 25.0076 51.9235 26.4513C49.3975 29.2389 46.8831 29.8976 43.277 29.7133C43.2991 32.4001 43.3585 34.2343 46.7274 34.1533C49.2838 34.0918 51.5112 32.5771 53.2698 30.8236C55.2479 28.7819 56.6171 24.8897 57.4136 22.1342C57.5346 21.7161 57.459 19.5656 57.6771 19.3363C57.9623 19.0365 61.0984 18.6638 61.745 18.4949C61.9876 18.4316 62.3274 18.527 62.5196 18.7019C62.8128 19.343 62.0429 20.687 61.7421 21.3235C63.2484 19.6391 64.5543 18.1966 66.9628 18.0625C69.3103 17.9319 70.1816 19.1702 70.3593 21.2817C72.1058 19.3301 73.4151 18.3322 76.1138 18.1224C78.4079 17.9441 79.9954 19.2515 80.0216 21.6006C80.0507 24.2066 78.2452 27.132 77.2647 29.5228C76.8611 30.5066 75.4485 32.8428 76.382 33.7496C78.1982 34.678 81.2499 30.9565 81.863 29.5162C82.9324 27.0072 84.1239 24.4151 84.7845 21.7641C84.9686 21.0181 84.9395 19.9277 84.9269 19.1571C85.9353 19.0985 90.1994 18.5237 90.6818 18.7092C91.0489 19.4222 86.2782 30.4376 85.8937 31.8804C85.1032 34.8444 87.2604 34.0079 88.7473 32.8186C90.7399 30.9127 92.3537 28.3733 93.4841 25.8467C94.8248 22.9183 95.1677 18.9964 98.7721 17.9254C100.278 17.4777 102.637 17.5444 103.797 18.7647C104.108 19.0936 103.269 21.2416 103.019 21.5942L102.841 21.6761C102.257 21.3826 100.692 20.3427 100.083 20.739C98.403 21.8329 100.971 25.7316 101.644 26.9149C103.636 30.4159 103.426 35.7148 98.9823 37.1044C95.7857 38.1041 92.1202 37.7021 90.9007 34.0337C90.8474 33.8727 90.7961 33.711 90.7457 33.5489C89.0505 35.9464 85.0945 38.8139 81.8979 36.9151C81.0624 36.4188 80.7827 35.302 80.5805 34.3937C77.1981 39.0543 68.5505 38.8196 71.3322 31.3587C72.3672 28.5826 73.8328 26.0203 74.8024 23.2257C75.0092 22.609 75.3173 21.6285 74.7462 21.1629C74.0688 21.0124 73.1306 21.5247 72.5696 21.8813C69.3823 23.9073 66.9572 33.5285 65.3929 37.1783C64.6536 37.1931 61.1349 37.3154 60.6751 37.0393C60.2606 35.8628 67.3961 21.9289 65.7963 21.1624C65.4498 20.9965 64.8471 21.2172 64.5052 21.3505C62.7019 22.0535 61.3975 24.415 60.6673 26.103C59.5971 28.577 58.7022 31.1584 57.7444 33.6793C57.3247 34.784 56.9534 36.0575 56.3551 37.0769C54.8147 37.1081 53.274 37.1226 51.7334 37.1204C51.8039 36.7595 51.9383 35.9723 52.0602 35.6656C52.1451 35.5925 52.663 34.465 52.7524 34.2775C52.4151 34.5676 51.9811 35.0322 51.6582 35.3599C48.3278 38.1414 40.405 39.0418 38.8249 33.7747C38.1696 31.5901 38.4927 28.6531 39.5581 26.6395C38.4067 26.7629 36.4131 26.7271 35.1791 26.7511C35.3374 28.1769 35.1126 33.1659 34.8641 34.6217C33.9906 39.0994 32.514 44.9059 28.9755 48.0156C27.452 49.3546 24.2447 49.416 23.0474 47.6502C21.2395 44.9837 24.0601 41.1867 24.6247 38.5969C25.0202 36.7819 21.8465 33.3857 20.8239 32.0081C21.9235 31.4626 22.9951 31.5115 24.2052 30.8756C26.6871 29.5713 28.2144 26.0656 29.7705 24.4201C28.8366 24.4437 25.7378 24.655 25.1354 24.2192C24.9903 23.5059 25.7047 23.3362 25.834 22.7315C22.4818 23.9896 18.841 24.2695 15.3358 23.5386C15.1847 24.0263 15.0146 24.5078 14.8259 24.9823C13.1969 28.9713 11.0058 32.6618 8.41123 36.0899C8.03761 36.5833 7.64598 37.1969 7.05887 37.4427C6.34177 37.4054 5.92272 35.3419 5.57371 34.6681C4.724 33.0278 3.7781 31.6452 2.33604 30.4574C1.97366 30.159 1.54958 29.8244 1.50958 29.3394C1.9758 28.7216 3.5617 28.7863 4.25507 28.2736C4.70511 27.9846 5.29929 27.6601 5.68801 27.2928C11.8622 21.4602 13.758 12.5755 19.0257 6.07392C20.2648 4.54461 21.2308 3.83338 22.8877 2.83534C17.0844 2.31482 6.03644 4.30634 5.88252 11.901C5.86237 12.8945 6.14988 13.3268 6.80692 14.0047C7.08512 14.1005 7.54175 14.1656 7.84359 14.2186ZM19.6962 20.9033C22.1578 20.1323 23.5135 19.3324 25.4282 17.5765C29.204 14.114 30.9293 6.41787 25.4721 3.62523C25.4192 3.5982 25.3661 3.57137 25.3129 3.54483C21.0101 7.74454 19.0742 15.998 16.3064 21.3348C17.5727 21.1735 18.4147 21.1579 19.6962 20.9033ZM94.8867 34.1234C98.3846 34.3388 98.1918 30.6687 97.166 28.4083C96.9277 27.8824 96.1218 25.7904 95.7653 25.5165C95.5261 26.5187 95.1696 27.2275 94.7056 28.1322C93.9103 29.6823 92.2278 31.3843 93.1703 33.2242C93.458 33.7849 94.2968 34.0665 94.8867 34.1234ZM33.4162 29.9383L33.2034 29.7337C31.6319 34.5246 29.4373 39.094 27.5798 43.77C27.396 44.2325 27.1349 45.2725 27.3518 45.7376C28.1384 46.1325 29.4617 43.5731 29.7305 43.0086C31.0812 40.1723 32.0245 37.1471 32.6558 34.0732C32.9138 32.8445 33.0961 31.0544 33.4162 29.9383ZM44.0123 27.4382L45.2333 27.329C48.5841 26.6087 51.9511 20.3291 48.9402 20.7302C46.3894 21.5043 44.7623 25.0994 44.0123 27.4382Z" fill="white"/>
<path d="M33.2031 29.7335C33.261 29.2992 33.287 28.7284 33.5585 28.4062C33.8691 28.6878 33.5256 29.5515 33.4159 29.9382L33.2031 29.7335Z" fill="white"/>
<path d="M132.273 14.6602C132.848 14.8106 132.75 15.2362 132.62 15.7088C132.321 16.7923 131.857 17.9297 131.46 18.9774C132.658 18.9675 138.557 18.8393 139.246 19.3168C139.297 19.5568 139.261 19.6533 139.131 19.8749C137.432 22.7613 135.849 25.4688 134.61 28.6125C134.104 29.9497 132.786 32.3965 133.772 33.7591C134.397 34.623 135.927 33.6313 136.512 33.2032C138.869 31.4762 138.782 30.52 139.42 27.9591C140.064 25.3728 142.088 22.5525 143.971 20.69C145.73 18.9749 147.736 18.0552 150.169 18.0823C155.62 18.1432 154.646 24.65 151.528 27.1477C148.512 29.6829 147.222 29.8668 143.525 29.7296C143.496 31.5646 143.39 33.8471 145.804 34.1905C149.079 34.5999 152.503 32.1847 154.342 29.6318C154.627 29.2365 155.747 27.2179 156.21 27.4265C156.679 27.638 157.581 28.3849 157.217 29.0358C154.377 34.1156 148.813 39.129 142.55 37.2947C140.467 36.6797 139.766 35.3112 138.896 33.622C138.804 33.7926 138.698 33.9551 138.577 34.108C136.69 36.5408 132.919 38.8984 129.831 36.7641C129.026 36.2078 128.475 34.7725 128.42 33.8224C128.209 30.1863 130.752 24.933 132.943 22.1886C133.118 21.9898 133.304 21.7144 133.461 21.4941L130.014 21.3801C128.196 25.5722 126.693 29.5466 123.752 33.2322C122.151 35.1365 119.906 37.3076 117.308 37.5076C114.648 37.7124 113.555 36.8711 113.336 34.2578C113.026 34.6776 112.68 35.0705 112.304 35.4323C110.608 37.0536 106.522 38.6809 104.942 36.6436C102.467 33.4542 107.285 25.9767 108.086 22.4396C108.374 21.1601 108.41 20.3574 108.47 19.1136C109.517 19.0124 110.56 18.894 111.602 18.7584C112.186 18.6778 113.505 18.4432 113.998 18.4761C114.564 19.6897 109.335 30.4276 109.097 33.0184C109.067 33.3514 109.091 33.5337 109.302 33.7849C109.557 33.8916 109.777 33.9237 110.054 33.91C113.745 33.728 116.627 24.4591 117.717 21.488C118.054 20.5683 118.326 19.2179 118.986 18.4923C119.612 18.1366 122.817 18.3057 123.675 18.3516C122.606 21.6213 121.284 24.8714 120.02 28.0707C119.484 29.4293 118.833 30.7814 118.403 32.175C118.305 32.4908 118.218 32.8563 118.279 33.1855C118.318 33.3907 118.42 33.5789 118.602 33.6893C118.915 33.8799 119.333 33.8843 119.679 33.7967C122.681 33.0362 126.481 24.3687 126.999 21.4429C127.214 20.2277 126.876 16.5791 127.361 15.7818C127.921 15.3375 131.402 14.7592 132.273 14.6602ZM144.203 27.4819L145.291 27.4156C147.12 27.0384 148.333 25.7708 149.365 24.2557C149.873 23.5116 150.815 21.5854 149.998 20.8151C149.854 20.687 149.419 20.7207 149.218 20.7275C146.714 21.4137 145.016 25.1939 144.203 27.4819Z" fill="white"/>
<path d="M103.393 42.6413C103.623 41.8096 104.134 39.1149 104.994 38.8867C106.049 39.1972 106.465 42.6621 106.893 43.8289C106.946 42.6271 107.192 41.5843 107.466 40.4184C107.662 39.5905 107.978 38.5247 109.105 39.0267C109.281 39.2493 107.067 53.6554 104.974 41.5222C104.801 42.2732 103.842 48.6755 102.35 45.6339C101.882 44.6809 100.771 40.3029 100.562 39.1243C101.123 38.6982 101.982 38.8914 102.183 39.6201C102.455 40.6053 102.781 41.8167 102.917 42.8227C102.95 43.095 102.946 43.1839 103.098 43.4149C103.284 43.2768 103.336 42.8841 103.393 42.6413Z" fill="white"/>
<path d="M86.0867 40.8001C86.6785 40.7075 89.0043 40.657 89.4043 41.0604C89.6271 41.8142 88.8968 42.9353 88.6217 43.6472C88.3524 44.3433 87.1503 44.2033 86.3133 44.4766L86.3424 44.5669C87.5067 45.0078 90.2558 44.4066 89.4625 46.8251C89.1564 47.3572 88.8774 47.6174 88.2865 47.8423C87.0718 48.305 84.3847 48.325 84.5659 46.4184C84.5823 46.2413 85.0696 45.7009 85.0463 45.5758C84.8729 44.637 84.8196 44.7698 85.2749 43.8961C84.4981 42.646 84.6443 41.4442 86.0867 40.8001ZM87.2994 43.1099C87.5164 42.8425 87.6288 42.7452 87.6462 42.4093C87.4166 41.8497 86.9342 41.8857 86.3976 41.9067C86.2465 42.478 86.1428 42.9954 86.7579 43.2723C87.0214 43.25 87.0699 43.2523 87.2994 43.1099Z" fill="white"/>
<path d="M70.2283 38.539C70.3729 38.529 70.5177 38.5211 70.6625 38.5154C71.0222 38.5022 71.232 38.4841 71.4994 38.7318C71.6851 39.5334 71.6603 45.3886 71.3678 46.1827C70.8845 46.5446 70.5206 46.0806 70.1855 45.7493C69.6327 46.0643 69.201 46.2668 68.5686 46.3257C66.3869 45.6505 66.1786 42.5234 67.74 41.111C68.2678 40.6335 69.2978 40.8213 69.9901 40.8858C70.1393 40.3419 70.0214 39.322 70.2283 38.539ZM69.1817 45.0367L70.0949 44.646C70.0912 43.8088 70.0716 42.9716 70.0363 42.135L69.0159 41.9394C68.0829 42.6365 67.7536 44.731 69.1817 45.0367Z" fill="white"/>
<path d="M139.499 38.5737C139.933 38.5534 140.174 38.5194 140.593 38.6587C141.029 39.1309 140.609 44.4859 140.77 45.4316C140.816 45.6964 140.702 46.014 140.53 46.2323C139.802 46.5204 139.635 45.8564 139.318 45.8874C138.623 45.9555 138.602 46.3192 137.651 46.2232C134.988 45.4302 135.408 39.6338 139.332 41.0438C139.273 40.3261 139.11 39.1479 139.499 38.5737ZM138.807 44.9388C139.047 44.7789 139.219 44.7245 139.254 44.4138C139.417 43.0037 139.684 41.9718 137.947 42.0226C137.209 43.0508 136.888 45.116 138.807 44.9388Z" fill="white"/>
<path d="M89.1077 10.3172C90.1161 10.034 91.1981 10.3159 91.9401 11.0548C92.6821 11.7937 92.9688 12.8751 92.6898 13.8844C92.4109 14.8937 91.6098 15.6744 90.5937 15.9272C89.0544 16.3101 87.493 15.3869 87.0871 13.8539C86.6812 12.321 87.5811 10.7461 89.1077 10.3172Z" fill="white"/>
<path d="M124.568 38.9595C126.333 38.9792 127.409 38.7666 128.783 39.8815C129.382 41.2315 129.361 42.8517 127.838 43.6037C127.211 43.9129 126.729 43.8891 126.041 43.9114C125.871 43.9104 125.84 43.9117 125.678 43.9584C125.43 44.4413 125.704 45.7196 125.502 45.9559C124.538 47.0835 123.979 45.8456 124.052 44.8621C124.193 42.9486 123.853 41.0725 124.143 39.1971C124.165 39.0524 124.449 38.9998 124.568 38.9595ZM125.646 42.5143C126.326 42.5086 126.749 42.5263 127.378 42.2235C127.522 41.734 127.7 41.2174 127.452 40.7476C126.865 40.1729 126.303 40.4448 125.574 40.3186C125.612 41.05 125.636 41.7821 125.646 42.5143Z" fill="white"/>
<path d="M75.4521 38.9475C75.5878 38.9414 75.7236 38.9378 75.8595 38.9366C77.25 38.9298 76.8222 40.8543 76.7648 41.8319C77.656 41.7881 78.5808 41.8071 79.4752 41.8118C79.3863 41.1232 79.3059 39.9419 79.5632 39.2989C79.7207 38.8469 80.9294 38.7799 80.9485 39.2935C80.9958 40.5687 81.3145 45.3992 80.7605 46.2871C80.6525 46.2945 80.5444 46.2998 80.4362 46.3029C79.0225 46.3407 79.4173 44.2 79.406 43.1311C78.5986 43.1857 77.5858 43.1796 76.7667 43.1912C76.8078 44.1587 77.2419 46.5688 75.6614 46.2411C75.4721 46.0755 75.3185 45.941 75.3118 45.6628C75.2883 44.6815 75.0083 39.5556 75.4521 38.9475Z" fill="white"/>
<path d="M54.0135 41.8331C53.996 41.1373 53.849 39.6907 54.2198 39.0845C54.3842 38.8156 55.0838 38.9108 55.3491 39.1608C55.6874 39.7328 55.4855 44.9655 55.3861 45.8877C55.3706 46.0323 55.1778 46.255 55.065 46.366C54.8236 46.354 54.485 46.3676 54.3139 46.2075C53.7888 45.716 53.929 43.9397 53.9261 43.178C53.067 43.2022 52.1915 43.2411 51.3342 43.1993C51.3561 44.0025 51.5886 45.7862 50.931 46.2959C50.5565 46.3308 50.4511 46.3571 50.1238 46.1876C49.9569 45.962 49.8786 45.9022 49.87 45.5991C49.8142 43.6213 49.8444 41.6235 49.8912 39.6446C49.8994 39.296 49.9961 39.1545 50.2518 38.9374C50.6848 38.9271 50.833 38.9098 51.1567 39.138C51.5694 39.8483 51.3574 41.0351 51.2982 41.8939C52.091 41.8043 53.1953 41.8346 54.0135 41.8331Z" fill="white"/>
<path d="M116.132 38.539C116.604 38.5188 116.87 38.5192 117.303 38.7055C117.751 39.2125 117.313 40.3335 117.498 41.0263C118.658 40.6656 119.983 40.2812 120.334 41.8434C120.537 42.7409 120.71 45.3326 120.301 46.0999C119.984 46.4055 119.344 46.3982 119.139 46.0945C118.896 45.7343 118.996 44.3299 119 43.9006C119.006 43.4155 119.067 42.5948 118.87 42.1817C118.265 41.7094 117.718 41.9168 117.522 42.6406C117.255 43.627 117.733 45.6119 117.019 46.365C115.524 46.7981 115.912 44.3427 115.937 43.4814C115.973 42.1978 115.654 39.6077 116.132 38.539Z" fill="white"/>
<path d="M91.068 38.5469C91.3218 38.6408 91.4565 38.6376 91.5911 38.8457C91.9476 39.3985 91.8032 40.3788 91.6948 40.9894C93.1555 40.5422 94.6734 40.403 94.8662 42.4496C94.8662 42.9484 95.0609 45.8467 94.6996 46.0775C92.9066 47.2223 93.3444 44.0968 93.3337 43.077C93.3667 41.5285 92.0561 41.6774 91.8187 42.5837C91.5998 43.423 92.1268 45.3604 91.5078 46.1544C91.1939 46.3132 90.512 46.2944 90.4878 46.0137C90.3435 44.3465 90.109 40.3655 90.4297 38.8181C90.6747 38.5692 90.667 38.6364 91.068 38.5469Z" fill="white"/>
<path d="M34.5239 38.9498C35.404 38.934 37.9014 38.8342 38.6023 38.9979C39.0148 39.3143 39.0712 39.6499 38.7978 40.0815C38.1843 40.4759 36.7725 40.2918 35.9961 40.2571C36.0542 40.948 36.0792 41.3144 35.9703 41.9951C36.6875 41.9393 37.6458 41.9558 38.3809 41.9473C38.4057 42.5497 38.4088 42.7684 38.3165 43.3609C37.509 43.4684 36.7912 43.4012 35.9775 43.3637C36.0222 44.1485 36.289 47.5185 34.5537 45.9561C34.2433 45.6766 34.3123 39.5455 34.5239 38.9498Z" fill="white"/>
<path d="M58.8834 40.7152C60.255 40.6227 61.5067 42.0403 61.2408 43.3906C61.0023 44.6018 58.2822 43.1229 58.0612 44.2632C58.1128 44.5144 58.2525 44.6187 58.4556 44.7602C59.5588 45.5282 59.8798 44.1215 60.9631 44.8938C61.2076 45.8607 59.9915 46.1513 59.2656 46.2223C55.8831 46.5534 55.3647 40.9532 58.8834 40.7152Z" fill="white"/>
<path d="M63.9418 40.709C66.3205 40.8042 66.0053 42.7195 66.0858 44.5081C66.1086 45.0149 66.1437 46.0506 65.6672 46.2956C65.3142 46.2816 65.0712 46.0563 64.7848 45.8467C63.5642 46.1666 62.9021 46.7293 61.8748 45.6684C60.6748 43.1022 64.1929 43.3615 64.5707 42.4987C64.262 41.2347 62.9617 42.5281 62.2905 42.4748C61.0722 41.4443 63.1237 40.7969 63.9418 40.709ZM63.642 45.1654C64.0564 45.0064 64.7526 44.7328 64.5615 44.1862C64.3531 44.0766 64.3248 44.074 64.0892 44.0875C63.6065 44.1717 63.3211 44.2466 63.1294 44.7305C63.2018 45.0046 63.3385 45.1364 63.642 45.1654Z" fill="white"/>
<path d="M143.439 40.7964C144.636 40.7081 145.645 40.8705 146.124 42.1348C146.316 42.6422 146.528 42.8793 146.437 43.4793C145.798 44.4648 144.441 43.6074 143.255 44.0243L143.178 44.1897C143.741 45.8183 144.906 44.7973 145.76 44.5847C145.802 44.6294 145.844 44.6749 145.883 44.7214C146.105 44.9818 146.143 45.1088 146.122 45.4147C145.352 46.7884 142.444 46.3965 141.931 44.7696C141.379 43.0146 141.546 41.5646 143.439 40.7964Z" fill="white"/>
<path d="M45.7354 40.6816C46.0808 40.7017 46.19 40.6953 46.4965 40.8455C46.575 40.9819 46.6929 41.2139 46.5989 41.3654C45.6292 42.9284 45.1268 48.8246 42.5035 48.0692C41.5146 47.0848 43.14 46.844 43.4101 46.4005C43.5232 46.0637 43.4192 45.8329 43.3177 45.4955C42.898 44.0462 42.2007 42.7037 41.733 41.2748C41.6359 40.9781 41.693 40.9158 41.9151 40.7671C42.19 40.7386 42.6882 40.7152 42.9087 40.8767C43.6733 41.4365 44.0809 43.5715 44.2919 44.4835C44.46 43.4574 44.7817 41.1251 45.7354 40.6816Z" fill="white"/>
<path d="M113.236 39.2178C113.708 39.2328 113.681 39.1661 114.06 39.3975C114.284 39.7349 114.017 40.1327 114.074 40.4229C114.197 41.0475 114.821 40.6236 115.273 40.951C115.365 41.0768 115.373 41.0981 115.395 41.2375C115.537 42.1123 114.745 41.7102 114.305 42.2154C114.026 42.5362 114.031 43.1211 114.052 43.5187C114.171 45.8372 114.522 44.4713 115.232 45.1112C115.42 45.3953 115.393 45.5227 115.378 45.871C115.054 46.1292 114.195 46.497 113.811 46.3675C112.209 45.8276 112.89 43.2897 112.568 42.0288C112.556 41.9845 112.155 41.8775 111.962 41.612C111.931 40.8333 112.556 40.9608 112.716 40.5824C112.962 39.9996 112.726 39.8291 113.236 39.2178Z" fill="white"/>
<path d="M39.7777 38.5593C40.1824 38.5519 40.5601 38.5135 40.8721 38.7598C41.1697 39.3882 40.9605 43.6046 41.0559 44.8405C41.3338 45.0579 41.6127 45.225 41.7056 45.5635C41.7086 45.8722 41.5928 45.9854 41.4092 46.2405C40.5813 46.4007 39.6926 46.3462 39.6177 45.3031C39.5464 44.3109 39.299 39.1171 39.7777 38.5593Z" fill="white"/>
<path d="M132.567 40.7188L132.833 40.8142C132.974 41.0997 132.998 41.1732 133.073 41.4833C132.831 42.2822 131.807 42.0792 131.515 42.4497C130.772 43.3939 131.829 45.2187 131.005 46.1709C130.72 46.3725 130.403 46.3167 130.052 46.3005C130.001 46.1899 129.963 46.0731 129.942 45.9529C129.818 45.2944 129.742 41.3478 130.099 40.8405C130.914 40.4749 131.017 41.1926 131.297 41.0732C131.823 40.8485 131.848 40.7504 132.567 40.7188Z" fill="white"/>
<path d="M133.723 40.82L133.813 40.8132C134.335 40.775 134.571 40.7009 134.955 41.0325C135.167 41.7174 135.211 45.6374 134.908 46.3063C134.494 46.3244 134.334 46.3423 133.922 46.2448C133.826 46.1621 133.755 46.1315 133.721 46.0256C133.498 45.3194 133.472 41.2995 133.723 40.82Z" fill="white"/>
<path d="M109.964 40.7373L110.183 40.7404C110.643 40.7493 111.01 40.699 111.327 41.0293C111.438 41.85 111.4 45.4601 111.274 46.2732C111.044 46.3042 110.122 46.3758 110.07 46.1508C109.786 44.9237 109.779 41.9419 109.964 40.7373Z" fill="white"/>
<path d="M82.4179 40.7836C82.7144 40.7708 83.6181 40.684 83.6481 41.1027C83.7179 42.0992 83.9242 45.4874 83.5358 46.2521C83.2742 46.279 82.5003 46.4161 82.4586 46.0964C82.325 45.0803 82.139 41.6327 82.4179 40.7836Z" fill="white"/>
<path d="M96.3372 44.546C98.4315 44.5268 97.6081 46.8458 96.4331 47.7049C96.128 47.7238 96.2384 47.7369 95.9623 47.6037L95.8887 47.3677C95.971 46.9249 96.2345 46.5949 96.4854 46.2191C96.4496 46.1886 96.4147 46.1577 96.3808 46.1264C95.7211 45.5285 95.7337 45.1574 96.3372 44.546Z" fill="white"/>
<path d="M110.396 38.6768C110.858 38.5388 111.345 38.7967 111.49 39.2562C111.635 39.7156 111.385 40.2064 110.928 40.3587C110.626 40.4592 110.292 40.3893 110.057 40.1755C109.821 39.9618 109.718 39.6375 109.789 39.327C109.859 39.0165 110.091 38.768 110.396 38.6768Z" fill="white"/>
<path d="M134.196 38.6611C134.512 38.599 134.837 38.7141 135.042 38.9613C135.248 39.2086 135.303 39.5484 135.184 39.8475C135.065 40.1466 134.793 40.357 134.474 40.3965C134.005 40.4543 133.573 40.13 133.498 39.6627C133.423 39.1953 133.732 38.7527 134.196 38.6611Z" fill="white"/>
<path d="M82.792 38.7025C83.2482 38.5534 83.7393 38.8014 83.8904 39.257C84.0416 39.7126 83.7955 40.2045 83.3402 40.357C82.8821 40.5106 82.3871 40.2629 82.236 39.8048C82.0839 39.3465 82.3338 38.8523 82.792 38.7025Z" fill="white"/>
<path d="M38.3446 24.5191C37.7039 24.6634 35.7476 24.7158 35.1064 24.5724C35.6922 24.3445 37.6651 24.4151 38.3472 24.4263L38.3446 24.5191Z" fill="white"/>
<path d="M51.6577 35.3597C51.9807 35.0321 52.4146 34.5674 52.7519 34.2773C52.6625 34.4649 52.1447 35.5923 52.0597 35.6654C51.9365 35.6082 51.7679 35.4524 51.6577 35.3597Z" fill="white"/>
<path d="M102.917 42.8229C103.013 42.6388 103.028 42.6081 103.179 42.4668L103.393 42.6414C103.336 42.8843 103.285 43.2769 103.099 43.4151C102.947 43.184 102.95 43.0952 102.917 42.8229Z" fill="white"/>
</svg>
